<svg width="58" height="685" viewBox="0 0 58 685" fill="none" xmlns="http://www.w3.org/2000/svg">
<path d="M41.4 673.268L30.2 684.168L19 673.268V664.468L30.2 675.368L41.4 664.468V673.268ZM41.35 634.069V647.969L48 650.269V657.619L13.05 645.069L13.05 636.919L48 624.369V631.769L41.35 634.069ZM35.75 635.969L21.15 641.019L35.75 646.069V635.969ZM42.45 587.678V576.178H48V594.678H13.1V587.678H42.45ZM42.45 539.729V528.229H48V546.729H13.1V539.729H42.45ZM41.35 477.379V491.279L48 493.579V500.929L13.05 488.379V480.229L48 467.679V475.079L41.35 477.379ZM35.75 479.279L21.15 484.329L35.75 489.379V479.279ZM48 408.138V415.138L24.05 430.988H48V437.988H13.05V430.988L37.05 415.138H13.05L13.05 408.138H48ZM48.35 327.257C48.35 329.69 47.9333 331.89 47.1 333.857C46.2667 335.79 45.0667 337.324 43.5 338.457C41.9333 339.59 40.0833 340.174 37.95 340.207V332.707C39.3833 332.607 40.5167 332.107 41.35 331.207C42.1833 330.274 42.6 329.007 42.6 327.407C42.6 325.774 42.2167 324.49 41.45 323.557C40.65 322.624 39.6167 322.157 38.35 322.157C37.3167 322.157 36.4667 322.474 35.8 323.107C35.1333 323.74 34.6167 324.54 34.25 325.507C33.85 326.44 33.4167 327.74 32.95 329.407C32.2833 331.674 31.6333 333.524 31 334.957C30.3333 336.357 29.35 337.574 28.05 338.607C26.7167 339.607 24.95 340.107 22.75 340.107C20.6833 340.107 18.8833 339.59 17.35 338.557C15.8167 337.524 14.65 336.074 13.85 334.207C13.0167 332.34 12.6 330.207 12.6 327.807C12.6 324.207 13.4833 321.29 15.25 319.057C16.9833 316.79 19.4167 315.54 22.55 315.307V323.007C21.35 323.074 20.3667 323.59 19.6 324.557C18.8 325.49 18.4 326.74 18.4 328.307C18.4 329.674 18.75 330.774 19.45 331.607C20.15 332.407 21.1667 332.807 22.5 332.807C23.4333 332.807 24.2167 332.507 24.85 331.907C25.45 331.274 25.95 330.507 26.35 329.607C26.7167 328.674 27.15 327.374 27.65 325.707C28.3167 323.44 28.9833 321.59 29.65 320.157C30.3167 318.724 31.3167 317.49 32.65 316.457C33.9833 315.424 35.7333 314.907 37.9 314.907C39.7667 314.907 41.5 315.39 43.1 316.357C44.7 317.324 45.9833 318.74 46.95 320.607C47.8833 322.474 48.35 324.69 48.35 327.257ZM48.35 267.638C48.35 270.905 47.5833 273.905 46.05 276.638C44.5167 279.371 42.4 281.538 39.7 283.138C36.9667 284.738 33.8833 285.538 30.45 285.538C27.05 285.538 24 284.738 21.3 283.138C18.5667 281.538 16.4333 279.371 14.9 276.638C13.3667 273.905 12.6 270.905 12.6 267.638C12.6 264.338 13.3667 261.338 14.9 258.638C16.4333 255.905 18.5667 253.755 21.3 252.188C24 250.588 27.05 249.788 30.45 249.788C33.8833 249.788 36.9667 250.588 39.7 252.188C42.4 253.755 44.5167 255.905 46.05 258.638C47.5833 261.371 48.35 264.371 48.35 267.638ZM42.1 267.638C42.1 265.538 41.6333 263.688 40.7 262.088C39.7333 260.488 38.3667 259.238 36.6 258.338C34.8333 257.438 32.7833 256.988 30.45 256.988C28.1167 256.988 26.0833 257.438 24.35 258.338C22.5833 259.238 21.2333 260.488 20.3 262.088C19.3667 263.688 18.9 265.538 18.9 267.638C18.9 269.738 19.3667 271.605 20.3 273.238C21.2333 274.838 22.5833 276.088 24.35 276.988C26.0833 277.888 28.1167 278.338 30.45 278.338C32.7833 278.338 34.8333 277.888 36.6 276.988C38.3667 276.088 39.7333 274.838 40.7 273.238C41.6333 271.605 42.1 269.738 42.1 267.638ZM13.1 212.68H34.7C37.0667 212.68 38.8833 212.064 40.15 210.83C41.3833 209.597 42 207.864 42 205.63C42 203.364 41.3833 201.614 40.15 200.38C38.8833 199.147 37.0667 198.53 34.7 198.53H13.1V191.48H34.65C37.6167 191.48 40.1333 192.13 42.2 193.43C44.2333 194.697 45.7667 196.414 46.8 198.58C47.8333 200.714 48.35 203.097 48.35 205.73C48.35 208.33 47.8333 210.697 46.8 212.83C45.7667 214.93 44.2333 216.597 42.2 217.83C40.1333 219.064 37.6167 219.68 34.65 219.68H13.1V212.68ZM42.1 152.567V136.867H48V160.667H42.6L19 145.067V160.667H13.1V136.867H18.5L42.1 152.567ZM41.35 84.5084V98.4084L48 100.708V108.058L13.05 95.5084V87.3584L48 74.8084V82.2084L41.35 84.5084ZM35.75 86.4084L21.15 91.4584L35.75 96.5084V86.4084ZM0.649999 26.3674L57.05 39.8674V46.7174L0.649999 33.2174L0.649999 26.3674ZM19 19.801V10.951L30.2 0.0509752L41.4 10.951V19.801L30.2 8.85098L19 19.801Z" fill="white"/>
</svg>
